<svg id="Camada_2" data-name="Camada 2" xmlns="http://www.w3.org/2000/svg" viewBox="0 0 132 41"><defs><style>.cls-1{fill:none}.cls-2{fill:#f07928}</style></defs><path class="cls-1" d="M0 41v-2h132v-1H0v-2h132V-3H-5v47h137v-3Zm112.53-11.99a4.5 4.5 0 0 0 2.76-.72q.57-.6.57-3.15V16.9a3.23 3.23 0 0 0-.51-2.25 4.62 4.62 0 0 0-2.4-.63 1.79 1.79 0 0 1-.1-1.21 24.57 24.57 0 0 0 5.67-1.23.56.56 0 0 1 .52.33 8.95 8.95 0 0 1 .38 3.25.48.48 0 0 0 .06.3q.07.07.29-.22a9.54 9.54 0 0 1 2.22-2.5 4.4 4.4 0 0 1 2.76-1.04 2.8 2.8 0 0 1 2 .66 1.9 1.9 0 0 1 .7 1.39 2.09 2.09 0 0 1-.65 1.48 1.99 1.99 0 0 1-1.46.67 1.4 1.4 0 0 1-.63-.16 1.92 1.92 0 0 1-.47-.3l-.4-.43q-.25-.28-.34-.36a1.33 1.33 0 0 0-.95-.3q-.54 0-2.06 2.07a5.04 5.04 0 0 0-1.07 2.84v5.9q0 2.54.6 3.1t3.08.76a1.15 1.15 0 0 1 .22.8.97.97 0 0 1-.22.75q-3.86-.1-5.44-.1-1.34 0-5.13.1a1.13 1.13 0 0 1-.18-.75 1.36 1.36 0 0 1 .18-.8Zm-16.7-14.48a8.8 8.8 0 0 1 6.18-2.76q7.58 0 7.58 7.4 0 .77-.83.77l-11.94-.08a10.92 10.92 0 0 0 1.43 5.87q1.97 3.07 4.9 3.07a7.88 7.88 0 0 0 3.08-.51 8.36 8.36 0 0 0 2.48-1.79.92.92 0 0 1 .95.67A9.4 9.4 0 0 1 102 30.9a8.78 8.78 0 0 1-6.92-2.74 9.02 9.02 0 0 1-2.13-6.33 9.64 9.64 0 0 1 2.88-7.29ZM72.79 4.5a1.26 1.26 0 0 0-.56-1 1.86 1.86 0 0 0-.76-.34l-1.48-.1a1.16 1.16 0 0 1-.27-1.28A22.68 22.68 0 0 0 76 .6q.59 0 .59.44-.18 1.71-.18 4.49v14.91a6.98 6.98 0 0 0 3.05-1.29 20.01 20.01 0 0 0 3.59-3.44 2.54 2.54 0 0 0 .36-.53 2.85 2.85 0 0 0 .23-.64.6.6 0 0 0-.32-.65 2.59 2.59 0 0 0-1.3-.32 1.1 1.1 0 0 1-.18-.74 1.43 1.43 0 0 1 .18-.8q3.33.09 4.4.09.6 0 3.91-.1a1.14 1.14 0 0 1 .22.8.96.96 0 0 1-.22.75 7.47 7.47 0 0 0-4.71 1.85l-3.95 3.82a.64.64 0 0 0-.2.43 1.13 1.13 0 0 0 .33.6l5.92 7.08a4.16 4.16 0 0 0 1.64 1.2 10.8 10.8 0 0 0 2.22.46 1.15 1.15 0 0 1 .22.8.97.97 0 0 1-.22.75q-2.7-.09-3.69-.09t-2.77.09q-.13 0-.17-.21a11.77 11.77 0 0 0-1.88-3.02l-3.28-4.17a6.43 6.43 0 0 0-1.45-1.4 7.87 7.87 0 0 0-1.93-.23v3.65a6.62 6.62 0 0 0 .43 3.08 2.57 2.57 0 0 0 1.9.75 1.19 1.19 0 0 1 .23.8.89.89 0 0 1-.23.75l-4.08-.1q-1.03 0-4.8.1a.97.97 0 0 1-.23-.75 1.15 1.15 0 0 1 .22-.8 3.77 3.77 0 0 0 2.5-.73q.5-.6.5-3.16V6.53q0-1.37-.06-2.04Zm-18.51 10a8.87 8.87 0 0 1 6.38-2.8 9.47 9.47 0 0 1 5 1.13 3.35 3.35 0 0 1 1.83 2.92 1.63 1.63 0 0 1-.7 1.4 2.48 2.48 0 0 1-1.47.5 1.52 1.52 0 0 1-1.7-1.5 5.36 5.36 0 0 0-.3-1.43 2.34 2.34 0 0 0-.91-1 3.54 3.54 0 0 0-1.99-.47 4.35 4.35 0 0 0-3.67 2 9.2 9.2 0 0 0-1.44 5.46 9.22 9.22 0 0 0 1.76 5.87 5.26 5.26 0 0 0 4.25 2.23 6.77 6.77 0 0 0 5.36-2.8 1.04 1.04 0 0 1 .94.6 9.25 9.25 0 0 1-3.3 3.38 8.48 8.48 0 0 1-3.99.91 8.5 8.5 0 0 1-6.52-2.52 9.47 9.47 0 0 1-2.36-6.74 9.61 9.61 0 0 1 2.83-7.14Zm-20.33.04a8.8 8.8 0 0 1 6.17-2.76q7.58 0 7.58 7.4 0 .77-.83.77l-11.94-.08a10.92 10.92 0 0 0 1.43 5.87q1.96 3.07 4.9 3.07a7.88 7.88 0 0 0 3.08-.51 8.36 8.36 0 0 0 2.48-1.79.92.92 0 0 1 .95.67 9.4 9.4 0 0 1-7.65 3.72 8.78 8.78 0 0 1-6.92-2.74 9.02 9.02 0 0 1-2.13-6.33 9.64 9.64 0 0 1 2.88-7.29ZM0 19h7.75v-6H0v-2h7.75V8.15q0-2.55-.69-3.16t-3.18-.7a.93.93 0 0 1-.21-.72 1.09 1.09 0 0 1 .21-.78q4.48.1 5.77.09.99 0 2.92-.04t2.7-.05q9.54 0 9.54 6.59a4.52 4.52 0 0 1-.3 1.62H30v2h-6.8a8.32 8.32 0 0 1-2.57 1.92V15a10.55 10.55 0 0 1 4.82 2.73 6.3 6.3 0 0 1 .92 1.26H30v2h-2.88a8.02 8.02 0 0 1 .15 1.52 7.4 7.4 0 0 1-2.22 5.41 8.03 8.03 0 0 1-3.43 1.92 18.07 18.07 0 0 1-5.37.7q-2.24 0-4.03-.04-1.8-.04-2.52-.04-1.44 0-5.82.09a.97.97 0 0 1-.21-.75 1.16 1.16 0 0 1 .21-.8q2.5-.08 3.18-.7t.68-3.17V21H0Z"/><path class="cls-1" d="M105.73 17.63a4.3 4.3 0 0 0-1.1-3.33 3.8 3.8 0 0 0-2.62-.98 4.84 4.84 0 0 0-1.16.14 6.22 6.22 0 0 0-1.4.6 4.2 4.2 0 0 0-1.51 1.55 8 8 0 0 0-.98 2.7l8.11-.12q.68 0 .66-.56ZM43.83 17.63a4.3 4.3 0 0 0-1.1-3.33 3.8 3.8 0 0 0-2.62-.98 4.84 4.84 0 0 0-1.16.14 6.22 6.22 0 0 0-1.4.6 4.2 4.2 0 0 0-1.51 1.55 8 8 0 0 0-.99 2.7l8.12-.12q.68 0 .66-.56ZM15.33 29.01q4.7 0 6.4-1.5a5.31 5.31 0 0 0 1.68-4.18 7.29 7.29 0 0 0-.37-2.33H11.61v5.16q0 2.83 3.72 2.85ZM11.6 14.72h3.32c2.5 0 4.26-.58 5.28-1.72h-8.6ZM14.7 16.27h-3.1V19h10.33a7 7 0 0 0-.7-.75q-2.18-1.98-6.54-1.98ZM19.51 5.66a6.47 6.47 0 0 0-4.03-1.32 13.96 13.96 0 0 0-2.73.18q-.82.19-.98.5a2.7 2.7 0 0 0-.16 1.13V11h9.55a6.15 6.15 0 0 0 .1-1.11 4.97 4.97 0 0 0-1.75-4.23Z"/><path class="cls-2" d="M0 36h132v2H0zM0 39h132v2H0z"/><path d="M11.6 6.15a2.7 2.7 0 0 1 .17-1.12q.16-.32.98-.5a13.96 13.96 0 0 1 2.73-.2 6.47 6.47 0 0 1 4.03 1.33 4.97 4.97 0 0 1 1.75 4.23 6.15 6.15 0 0 1-.1 1.11h3.35a4.52 4.52 0 0 0 .3-1.63q0-6.58-9.54-6.58-.77 0-2.7.05t-2.92.04q-1.29 0-5.77-.09a1.09 1.09 0 0 0-.21.78.93.93 0 0 0 .21.73q2.5.08 3.18.69t.69 3.16V11h3.86ZM11.6 16.27h3.1q4.35 0 6.53 1.98a7 7 0 0 1 .7.75h4.44a6.3 6.3 0 0 0-.92-1.26 10.55 10.55 0 0 0-4.82-2.73v-.1A8.32 8.32 0 0 0 23.2 13h-3c-1.02 1.14-2.77 1.72-5.28 1.72H11.6V13H7.75v6h3.86ZM23.4 23.33a5.31 5.31 0 0 1-1.68 4.17q-1.69 1.51-6.4 1.51-3.71-.02-3.71-2.85V21H7.75v4.14q0 2.54-.69 3.17t-3.18.7a1.16 1.16 0 0 0-.21.8.97.97 0 0 0 .21.75q4.38-.09 5.82-.09.72 0 2.52.04t4.03.05a18.07 18.07 0 0 0 5.37-.71 8.03 8.03 0 0 0 3.43-1.92 7.4 7.4 0 0 0 2.22-5.4 8.02 8.02 0 0 0-.15-1.53h-4.08a7.29 7.29 0 0 1 .37 2.33ZM40.1 30.89a9.4 9.4 0 0 0 7.66-3.72.92.92 0 0 0-.95-.67 8.36 8.36 0 0 1-2.48 1.79 7.88 7.88 0 0 1-3.08.51q-2.94 0-4.9-3.07a10.92 10.92 0 0 1-1.43-5.87l11.94.08q.83 0 .83-.76 0-7.4-7.58-7.4a8.8 8.8 0 0 0-6.17 2.75 9.64 9.64 0 0 0-2.88 7.3 9.02 9.02 0 0 0 2.13 6.32 8.78 8.78 0 0 0 6.92 2.74Zm-4.06-15.28a4.2 4.2 0 0 1 1.51-1.56 6.22 6.22 0 0 1 1.4-.59 4.84 4.84 0 0 1 1.16-.14 3.8 3.8 0 0 1 2.63.98 4.3 4.3 0 0 1 1.09 3.33q.02.56-.66.56l-8.11.12a8 8 0 0 1 .98-2.7ZM60.32 30.89a8.48 8.48 0 0 0 3.98-.9 9.25 9.25 0 0 0 3.3-3.39 1.04 1.04 0 0 0-.93-.6 6.77 6.77 0 0 1-5.36 2.8 5.26 5.26 0 0 1-4.25-2.23 9.22 9.22 0 0 1-1.76-5.87 9.2 9.2 0 0 1 1.44-5.45 4.35 4.35 0 0 1 3.67-2.01 3.54 3.54 0 0 1 1.99.48 2.34 2.34 0 0 1 .92.99 5.36 5.36 0 0 1 .3 1.43 1.52 1.52 0 0 0 1.69 1.5 2.48 2.48 0 0 0 1.47-.5 1.63 1.63 0 0 0 .7-1.4 3.35 3.35 0 0 0-1.84-2.92 9.47 9.47 0 0 0-4.99-1.13 8.87 8.87 0 0 0-6.38 2.8 9.61 9.61 0 0 0-2.83 7.14 9.47 9.47 0 0 0 2.36 6.74 8.5 8.5 0 0 0 6.52 2.52ZM72.33 28.28a3.77 3.77 0 0 1-2.49.73 1.15 1.15 0 0 0-.22.8.97.97 0 0 0 .22.75q3.78-.1 4.8-.1l4.09.1a.89.89 0 0 0 .23-.75 1.19 1.19 0 0 0-.23-.8 2.57 2.57 0 0 1-1.9-.75 6.62 6.62 0 0 1-.43-3.08v-3.65a7.87 7.87 0 0 1 1.93.23 6.43 6.43 0 0 1 1.45 1.4l3.28 4.17a11.77 11.77 0 0 1 1.88 3.02q.04.2.17.2 1.79-.08 2.77-.08t3.69.09a.97.97 0 0 0 .22-.75 1.15 1.15 0 0 0-.22-.8 10.8 10.8 0 0 1-2.22-.47 4.16 4.16 0 0 1-1.64-1.19l-5.92-7.09a1.13 1.13 0 0 1-.33-.6.64.64 0 0 1 .2-.42l3.95-3.82a7.47 7.47 0 0 1 4.71-1.85.96.96 0 0 0 .22-.75 1.14 1.14 0 0 0-.22-.8q-3.31.1-3.9.1-1.08 0-4.41-.1a1.43 1.43 0 0 0-.18.81 1.1 1.1 0 0 0 .18.74 2.59 2.59 0 0 1 1.3.32.6.6 0 0 1 .32.65 2.85 2.85 0 0 1-.23.64 2.54 2.54 0 0 1-.36.53 20.01 20.01 0 0 1-3.6 3.44 6.98 6.98 0 0 1-3.04 1.3V5.53q0-2.78.18-4.5 0-.43-.6-.43a22.68 22.68 0 0 1-6.27 1.17 1.16 1.16 0 0 0 .27 1.27l1.48.1a1.86 1.86 0 0 1 .76.35 1.26 1.26 0 0 1 .56 1q.07.67.07 2.04v18.6q0 2.55-.52 3.15ZM102.01 30.89a9.4 9.4 0 0 0 7.65-3.72.92.92 0 0 0-.95-.67 8.36 8.36 0 0 1-2.48 1.79 7.88 7.88 0 0 1-3.08.51q-2.93 0-4.9-3.07a10.92 10.92 0 0 1-1.43-5.87l11.94.08q.83 0 .83-.76 0-7.4-7.58-7.4a8.8 8.8 0 0 0-6.17 2.75 9.64 9.64 0 0 0-2.88 7.3 9.02 9.02 0 0 0 2.13 6.32A8.78 8.78 0 0 0 102 30.9Zm-4.07-15.28a4.2 4.2 0 0 1 1.51-1.56 6.22 6.22 0 0 1 1.4-.59 4.84 4.84 0 0 1 1.16-.14 3.8 3.8 0 0 1 2.63.98 4.3 4.3 0 0 1 1.09 3.33q.02.56-.66.56l-8.11.12a8 8 0 0 1 .98-2.7ZM117.66 30.46q1.58 0 5.44.1a.97.97 0 0 0 .22-.75 1.15 1.15 0 0 0-.22-.8q-2.48-.19-3.08-.76t-.6-3.1v-5.9a5.04 5.04 0 0 1 1.07-2.84q1.52-2.07 2.06-2.07a1.33 1.33 0 0 1 .95.3l.34.36.4.43a1.92 1.92 0 0 0 .48.3 1.4 1.4 0 0 0 .62.16 1.99 1.99 0 0 0 1.46-.67 2.09 2.09 0 0 0 .65-1.48 1.9 1.9 0 0 0-.7-1.4 2.8 2.8 0 0 0-2-.65 4.4 4.4 0 0 0-2.76 1.05 9.54 9.54 0 0 0-2.22 2.5q-.22.28-.29.2a.48.48 0 0 1-.06-.29 8.95 8.95 0 0 0-.38-3.25.56.56 0 0 0-.52-.33 24.57 24.57 0 0 1-5.66 1.23 1.79 1.79 0 0 0 .09 1.21 4.62 4.62 0 0 1 2.4.63 3.23 3.23 0 0 1 .51 2.25v8.25q0 2.55-.57 3.15a4.5 4.5 0 0 1-2.76.72 1.36 1.36 0 0 0-.17.8 1.13 1.13 0 0 0 .17.75q3.8-.1 5.13-.1Z"/><path class="cls-2" d="M20.2 13H30v-2H0v2h20.2zM11.61 21H30v-2H0v2h11.61z"/><path class="cls-1" d="M0 0h132v41H0z"/></svg>